<?xml version="1.0" standalone="no"?><!DOCTYPE svg PUBLIC "-//W3C//DTD SVG 1.1//EN" "http://www.w3.org/Graphics/SVG/1.1/DTD/svg11.dtd"><svg width="200" height="200" viewBox="0 0 200 200" version="1.1" xmlns="http://www.w3.org/2000/svg" xmlns:xlink="http://www.w3.org/1999/xlink">
<g class="transform-group"><g transform="scale(0.1953125, 0.1953125)"><path d="M512.325632 896.370688m-64 0a62.5 62.5 0 1 0 128 0 62.5 62.5 0 1 0-128 0ZM594.245632 146.243584c0-45.243392-36.676608-81.92-81.92-81.92s-81.92 36.676608-81.92 81.92c0 1.641472 0.062464 3.26656 0.156672 4.88448l-0.014336 0 17.77664 522.533888c0 35.346432 28.653568 64 64 64s64-28.653568 64-64l17.77664-522.533888-0.014336 0C594.183168 149.511168 594.245632 147.885056 594.245632 146.243584z" fill="#fff"></path></g></g></svg>
