<?xml version="1.0" standalone="no"?><!DOCTYPE svg PUBLIC "-//W3C//DTD SVG 1.1//EN" "http://www.w3.org/Graphics/SVG/1.1/DTD/svg11.dtd"><svg width="200" height="200" viewBox="0 0 200 200" version="1.1" xmlns="http://www.w3.org/2000/svg" xmlns:xlink="http://www.w3.org/1999/xlink">
<g class="transform-group"><g transform="scale(0.1953125, 0.1953125)"><path d="M511.997953 65.071018c-246.829642 0-446.926936 200.097294-446.926936 446.923866 0 246.831688 200.097294 446.932052 446.926936 446.932052 246.831688 0 446.930005-200.100364 446.930005-446.932052C958.927959 265.169335 758.830665 65.071018 511.997953 65.071018zM511.997953 903.059534c-215.974913 0-391.06158-175.086667-391.06158-391.063627 0-215.974913 175.086667-391.05851 391.06158-391.05851 215.97696 0 391.063627 175.083597 391.063627 391.05851C903.062604 727.972866 727.975936 903.059534 511.997953 903.059534zM671.696142 352.302835c-10.994402-10.994402-28.821419-10.994402-39.815821 0L511.844457 472.341768 393.489886 353.987197c-10.907421-10.910491-28.592198-10.910491-39.502689 0-10.907421 10.907421-10.907421 28.592198 0 39.499619L472.341768 511.842411 353.182878 631.004371c-10.994402 10.994402-10.994402 28.818349 0 39.809681 10.994402 10.994402 28.818349 10.994402 39.815821 0L512.154519 551.657208l118.354572 118.354572c10.907421 10.907421 28.595268 10.907421 39.502689 0 10.907421-10.910491 10.907421-28.595268 0-39.505759L551.660278 512.154519l120.035864-120.038934C682.690544 381.124254 682.690544 363.29519 671.696142 352.302835z" fill="#fff"></path></g></g></svg>
